<?xml version="1.0" encoding="UTF-8"?>
<svg xmlns="http://www.w3.org/2000/svg" xmlns:xlink="http://www.w3.org/1999/xlink" width="210.08pt" height="202.32pt" viewBox="0 0 210.08 202.32" version="1.1">
<defs>
<clipPath id="clip1">
  <path d="M 0 0 L 210.078125 0 L 210.078125 202.320313 L 0 202.320313 Z M 0 0 "/>
</clipPath>
</defs>
<g id="surface1">
<g clip-path="url(#clip1)" clip-rule="nonzero">
<path style=" stroke:none;fill-rule:evenodd;fill:rgb(13.699341%,12.199402%,12.5%);fill-opacity:1;" d="M 208.230469 145.011719 C 208.1875 144.222656 208.117188 143.421875 207.90625 142.65625 C 207.230469 140.214844 204.859375 138.773438 202.480469 138.382813 C 201.761719 138.265625 200.917969 138.238281 200.191406 138.292969 C 198.71875 138.410156 197.472656 139.261719 195.898438 139.207031 C 194.945313 139.175781 193.355469 139.21875 192.914063 138.222656 C 191.703125 135.488281 196.371094 135.683594 197.652344 135.15625 C 199.808594 134.261719 199.429688 132.554688 199.941406 130.738281 C 200.371094 129.214844 204.261719 129.960938 204.234375 130.070313 C 204.460938 129.058594 203.460938 127.902344 202.816406 127.230469 C 202.003906 126.382813 200.894531 126.164063 199.769531 126.132813 C 198.941406 126.105469 197.859375 126.390625 197.179688 125.984375 C 195.117188 124.738281 192.433594 124.894531 190.375 125.90625 C 189.074219 126.765625 187.917969 128.089844 187.117188 129.417969 C 185.691406 131.785156 184.851563 134.507813 183.164063 136.722656 C 181.101563 139.445313 177.820313 139.851563 174.625 139.738281 C 172.503906 139.660156 170.320313 139.546875 168.28125 138.886719 C 167.730469 138.707031 162.738281 136.800781 162.515625 137.148438 C 164.578125 133.878906 168.3125 131.507813 168.542969 127.382813 C 167.964844 126.566406 167.144531 125.710938 165.898438 125.710938 C 163.605469 126.257813 161.152344 126.527344 158.738281 126.566406 C 153.644531 126.644531 148.550781 125.515625 144.695313 123.066406 C 144.269531 122.792969 143.878906 122.519531 143.488281 122.210938 C 142.660156 121.546875 141.871094 120.828125 141.101563 120.101563 C 140.019531 119.085938 138.988281 118.027344 138.011719 116.914063 C 137.089844 115.867188 136.390625 114.707031 135.585938 113.578125 C 134.976563 112.714844 134.347656 111.863281 133.738281 111 C 131.894531 108.378906 129.964844 104.714844 132.21875 101.714844 C 132.941406 100.75 134.1875 100.058594 135.300781 100.839844 C 137.203125 102.183594 137.457031 105.175781 138.046875 107.226563 C 138.585938 109.105469 139.058594 111.042969 140.226563 112.648438 C 141.03125 113.753906 142.171875 114.738281 143.359375 115.417969 C 145.128906 116.429688 148.394531 116.503906 149.050781 114.070313 C 149.488281 112.457031 148.40625 110.828125 147.425781 109.652344 C 146.234375 108.226563 144.785156 107.046875 143.542969 105.675781 C 142.070313 104.054688 139.953125 100.648438 141.734375 98.519531 C 142.554688 97.535156 143.902344 97.824219 144.855469 98.441406 C 146.488281 99.5 147.472656 101.390625 148.183594 103.140625 C 148.621094 104.210938 148.964844 105.324219 149.363281 106.414063 C 150.054688 108.320313 150.707031 110.3125 151.832031 112.015625 C 153.035156 113.84375 154.96875 115.289063 156.914063 116.261719 C 158.039063 116.820313 159.257813 117.128906 160.488281 117.359375 C 162.09375 117.660156 163.808594 117.65625 165.355469 117.085938 C 166.929688 116.503906 168.519531 115.109375 168.675781 113.34375 C 168.816406 111.699219 167.785156 110.292969 166.667969 109.203125 C 164.824219 107.40625 162.574219 106.070313 160.519531 104.539063 C 159.660156 103.898438 158.828125 103.21875 158.011719 102.527344 C 156.648438 101.367188 155.332031 100.109375 154.183594 98.734375 C 153.136719 97.488281 152.4375 95.84375 153.074219 94.210938 C 153.28125 93.679688 153.722656 93.078125 154.265625 92.859375 C 156.320313 92.042969 158.6875 94.472656 159.9375 95.75 C 161.125 96.964844 162.183594 98.304688 163.265625 99.613281 C 163.933594 100.421875 164.597656 101.234375 165.269531 102.039063 C 167.667969 104.902344 170.3125 107.375 173.03125 109.917969 C 174.019531 110.835938 175.039063 111.726563 176.101563 112.550781 C 178.027344 114.050781 180.128906 115.40625 182.367188 116.386719 C 184.675781 117.40625 187.179688 117.867188 189.675781 118.105469 C 193.269531 118.441406 196.945313 117.777344 200.179688 116.175781 C 201.289063 115.628906 202.394531 114.878906 203.355469 114.105469 C 205.117188 112.683594 206.582031 110.574219 206.433594 108.210938 C 206.289063 105.847656 204.160156 104.308594 202 103.769531 C 198.480469 102.894531 194.703125 103.371094 191.109375 103.347656 C 187.445313 103.324219 183.671875 103.140625 180.144531 102.054688 C 176.554688 100.953125 173.328125 98.863281 170.324219 96.660156 C 167.929688 94.902344 165.726563 92.902344 163.753906 90.679688 C 162.863281 89.675781 159.6875 86.550781 161.292969 85.101563 C 161.675781 84.761719 162.289063 84.664063 162.773438 84.757813 C 163.710938 84.941406 164.648438 85.578125 165.417969 86.117188 C 166.503906 86.875 167.488281 87.777344 168.480469 88.648438 C 170.144531 90.109375 171.769531 91.601563 173.523438 92.957031 C 175.300781 94.328125 177.3125 95.535156 179.371094 96.441406 C 180.570313 96.972656 181.847656 97.273438 183.097656 97.640625 C 185.402344 98.316406 187.757813 98.953125 190.160156 99.117188 C 192.1875 99.253906 194.382813 99.1875 196.34375 98.648438 C 197.375 98.363281 198.40625 98.027344 199.402344 97.628906 C 202.722656 96.289063 206.023438 93.828125 206.460938 89.992188 C 206.546875 89.261719 206.441406 88.5 206.15625 87.820313 C 205.828125 87.027344 205.097656 86.347656 204.320313 86.023438 C 202.863281 85.417969 201.03125 85.4375 199.488281 85.5625 C 197.011719 85.761719 194.578125 86.351563 192.148438 86.84375 C 189.179688 87.445313 186.113281 87.925781 183.097656 87.386719 C 181.980469 87.1875 180.839844 87.074219 179.746094 86.761719 C 178.625 86.4375 177.605469 85.847656 176.550781 85.367188 C 175.527344 84.902344 174.519531 84.414063 173.523438 83.902344 C 171.71875 82.96875 169.910156 81.992188 168.253906 80.820313 C 167.324219 80.164063 165.257813 78.78125 165.6875 77.367188 C 166.132813 75.894531 168.644531 76.082031 169.769531 76.273438 C 170.828125 76.453125 171.84375 76.820313 172.804688 77.292969 C 174.054688 77.90625 175.183594 78.742188 176.414063 79.386719 C 177.546875 79.976563 178.6875 80.546875 179.859375 81.046875 C 182.941406 82.351563 186.257813 83.328125 189.601563 83.621094 C 190.394531 83.691406 191.191406 83.707031 191.992188 83.671875 C 194.753906 83.558594 197.496094 82.875 200.011719 81.730469 C 200.796875 81.371094 201.578125 80.992188 202.332031 80.570313 C 203.710938 79.800781 204.972656 78.839844 205.964844 77.597656 C 206.496094 76.933594 206.878906 76.167969 207.070313 75.335938 C 207.226563 74.667969 207.066406 73.65625 206.785156 73.039063 C 205.828125 70.90625 202.855469 70.507813 200.824219 70.824219 C 199.117188 71.089844 197.453125 71.574219 195.777344 71.976563 C 192.90625 72.664063 189.914063 72.773438 186.984375 73.007813 C 184.441406 73.207031 181.894531 73.199219 179.351563 72.988281 C 176.835938 72.777344 174.335938 72.242188 172.007813 71.242188 C 170.578125 70.625 169.242188 69.816406 168 68.886719 C 167.414063 68.449219 166.765625 67.898438 166.605469 67.148438 C 166.523438 66.765625 166.835938 66.171875 167.117188 65.941406 C 167.867188 65.335938 169.15625 65.488281 170.027344 65.667969 C 171.214844 65.917969 172.324219 66.425781 173.480469 66.789063 C 174.617188 67.148438 175.773438 67.445313 176.921875 67.777344 C 179.421875 68.511719 181.871094 69.21875 184.457031 69.59375 C 185.753906 69.78125 187.058594 69.976563 188.367188 70.070313 C 188.980469 70.113281 189.59375 70.117188 190.207031 70.09375 C 192.238281 70.019531 194.285156 69.777344 196.257813 69.273438 C 198.046875 68.8125 199.738281 68.386719 201.382813 67.511719 C 202.042969 67.160156 202.714844 66.832031 203.355469 66.445313 C 205.59375 65.089844 207.367188 62.886719 207.039063 60.105469 C 206.976563 59.558594 206.734375 58.953125 206.417969 58.503906 C 205.828125 57.671875 204.796875 57.050781 203.851563 56.695313 C 202.691406 56.257813 201.402344 56.503906 200.234375 56.78125 C 197.804688 57.359375 195.539063 58.265625 193.246094 59.246094 C 192.070313 59.746094 190.894531 60.21875 189.675781 60.605469 C 188.402344 61.015625 187.136719 61.253906 185.820313 61.476563 C 184.335938 61.726563 182.824219 61.917969 181.320313 62.019531 C 178.683594 62.191406 176.015625 62.074219 173.457031 61.367188 C 172.097656 60.992188 170.316406 60.644531 169.386719 59.472656 C 168.851563 58.800781 169.058594 57.9375 169.648438 57.378906 C 170.660156 56.429688 172.132813 56.691406 173.378906 56.785156 C 175.265625 56.925781 177.15625 57.070313 179.046875 57.199219 C 180.734375 57.316406 182.429688 57.488281 184.121094 57.402344 C 186.277344 57.289063 188.386719 56.796875 190.523438 56.519531 C 193.378906 56.148438 196.292969 55.785156 198.980469 54.703125 C 199.757813 54.390625 200.546875 54.09375 201.308594 53.753906 C 202.117188 53.390625 202.84375 52.875 203.605469 52.425781 C 204.355469 51.980469 205.105469 51.523438 205.738281 50.914063 C 207.390625 49.320313 207.8125 46.796875 206.753906 44.746094 C 206.128906 43.539063 205.117188 42.914063 203.679688 42.488281 C 202.007813 42.253906 200.566406 42.644531 199.125 43.265625 C 193.5625 45.484375 188.585938 47.898438 182.824219 49.6875 C 181.78125 50.011719 180.761719 50.382813 179.742188 50.769531 C 178.703125 51.167969 177.574219 51.257813 176.503906 51.5625 C 175.402344 51.875 174.273438 52.070313 173.136719 52.199219 C 172.070313 52.320313 170.949219 52.484375 169.894531 52.199219 C 169.203125 52.015625 168.671875 51.398438 168.761719 50.652344 C 168.824219 50.109375 169.183594 49.632813 169.574219 49.273438 C 170.351563 48.5625 171.210938 48.203125 172.199219 47.925781 C 174.039063 47.40625 175.863281 46.917969 177.738281 46.546875 C 178.644531 46.363281 179.554688 46.171875 180.460938 45.976563 C 183.582031 45.296875 186.757813 44.703125 189.84375 43.863281 C 191.390625 43.445313 192.902344 42.925781 194.421875 42.410156 C 195.417969 42.074219 196.402344 41.644531 197.367188 41.234375 C 199.070313 40.515625 200.753906 39.738281 202.371094 38.851563 C 203.15625 38.425781 203.945313 38.003906 204.695313 37.523438 C 206.050781 36.65625 207.226563 35.554688 207.789063 34.015625 C 207.878906 33.78125 207.9375 33.539063 207.988281 33.296875 L 207.996094 33.152344 L 208.019531 33.109375 C 208.261719 31.714844 207.976563 30.191406 207.386719 28.945313 C 206.671875 27.441406 205.167969 26.390625 203.554688 26.074219 C 202.546875 25.878906 201.472656 25.980469 200.527344 26.378906 C 195.976563 28.832031 191.617188 32.488281 187.261719 35.136719 C 186.246094 35.71875 185.199219 36.339844 184.144531 36.964844 C 183.269531 37.476563 182.375 37.960938 181.464844 38.410156 C 179.734375 39.273438 177.945313 40.03125 176.117188 40.65625 C 175.167969 40.976563 174.214844 41.273438 173.246094 41.523438 C 172.304688 41.769531 171.363281 42.089844 170.398438 42.222656 C 169.296875 42.375 168.015625 42.121094 168.109375 40.746094 C 168.238281 38.839844 170.214844 38.246094 171.621094 37.46875 C 175.746094 35.640625 180.257813 34.433594 183.992188 32.410156 C 185.238281 32.21875 186.054688 31.398438 187.300781 31.011719 C 187.480469 30.953125 187.660156 30.824219 187.832031 30.738281 C 189.308594 29.980469 190.785156 29.222656 192.242188 28.425781 C 193.691406 27.636719 195.125 26.808594 196.515625 25.917969 C 197.894531 25.035156 199.234375 24.089844 200.539063 23.097656 C 201.8125 22.125 203.050781 21.097656 204.1875 19.964844 C 205.382813 18.773438 206.519531 17.472656 207.53125 16.121094 C 208.429688 14.929688 208.890625 13.445313 209.03125 11.972656 C 209.121094 10.984375 208.917969 9.75 208.535156 8.835938 C 207.84375 7.183594 206.171875 6.019531 204.605469 5.269531 C 203.101563 4.550781 201.519531 4.496094 199.882813 4.578125 C 198.492188 4.644531 197.269531 5.546875 196.179688 6.332031 C 194.164063 7.777344 192.457031 9.59375 190.78125 11.410156 C 189.941406 12.320313 189.109375 13.238281 188.246094 14.125 C 187.816406 14.5625 187.382813 14.996094 186.933594 15.410156 C 186.703125 15.625 186.46875 15.824219 186.242188 16.046875 C 185.609375 16.6875 185.019531 17.277344 184.316406 17.839844 C 183.09375 18.820313 181.871094 19.804688 180.652344 20.792969 C 179.855469 21.441406 179.078125 22.113281 178.230469 22.695313 C 176.15625 24.113281 173.976563 25.339844 171.738281 26.476563 C 170.445313 27.128906 169.152344 27.796875 167.808594 28.339844 C 167.144531 28.609375 166.472656 28.84375 165.78125 29.027344 C 165.066406 29.222656 164.382813 29.484375 163.632813 29.363281 C 162.800781 29.230469 162.054688 28.796875 161.316406 28.402344 C 161.046875 28.257813 160.777344 28.105469 160.496094 27.980469 C 160.339844 27.910156 160.175781 27.851563 160.003906 27.808594 C 159.402344 27.65625 158.804688 27.980469 158.265625 28.207031 C 157.457031 28.550781 156.648438 28.886719 155.855469 29.277344 C 155.65625 29.375 155.457031 29.472656 155.261719 29.574219 C 154.574219 29.929688 153.90625 30.304688 153.257813 30.71875 C 152.746094 31.042969 152.25 31.386719 151.769531 31.746094 C 151.289063 32.105469 150.824219 32.480469 150.371094 32.871094 C 149.925781 33.261719 149.488281 33.667969 149.070313 34.09375 C 148.65625 34.511719 148.265625 34.953125 147.894531 35.414063 C 147.527344 35.867188 147.1875 36.34375 146.875 36.835938 C 146.5625 37.328125 146.277344 37.835938 146.011719 38.351563 C 145.875 38.609375 145.746094 38.871094 145.617188 39.132813 C 145.554688 39.265625 145.492188 39.394531 145.429688 39.523438 C 145.394531 39.589844 145.363281 39.65625 145.335938 39.722656 C 145.3125 39.773438 145.238281 39.867188 145.238281 39.921875 C 145.238281 40.738281 144.617188 41.359375 144.8125 41.945313 C 144.8125 41.945313 144.734375 41.945313 144.695313 41.984375 C 144.617188 42.023438 144.617188 42.0625 144.617188 42.175781 L 144.152344 45.054688 L 143.527344 47.507813 C 142.476563 50.386719 141.621094 53.460938 138.9375 54.859375 C 138.859375 54.902344 138.058594 54.019531 137.964844 53.925781 C 137.6875 53.640625 137.410156 53.347656 137.132813 53.058594 C 136.429688 52.316406 135.730469 51.558594 134.921875 50.933594 C 134.300781 50.453125 133.65625 50.007813 133.039063 49.523438 C 132.003906 48.707031 130.910156 47.964844 129.882813 47.140625 C 129.453125 46.792969 129.066406 46.394531 128.71875 45.96875 C 128.171875 45.296875 127.714844 44.570313 127.257813 43.835938 C 127.042969 43.488281 126.824219 43.136719 126.621094 42.773438 C 125.914063 41.515625 125.492188 40.144531 125.296875 38.714844 C 125.140625 37.558594 125.148438 36.367188 125.316406 35.214844 C 125.496094 34.039063 125.878906 32.921875 126.40625 31.859375 C 127.042969 30.582031 127.980469 29.46875 129.035156 28.519531 C 129.355469 28.234375 129.6875 27.964844 130.039063 27.714844 C 131.269531 26.828125 132.652344 26.15625 134.078125 25.640625 C 134.625 25.441406 135.1875 25.289063 135.757813 25.160156 C 137.765625 24.699219 139.824219 24.289063 141.871094 24.09375 C 142.5625 24.027344 143.253906 23.941406 143.941406 23.867188 C 146.34375 23.605469 148.757813 23.660156 151.167969 23.550781 C 151.761719 23.523438 152.355469 23.496094 152.945313 23.464844 C 154.894531 23.367188 156.90625 23.339844 158.738281 22.605469 C 159.269531 22.394531 159.769531 22.105469 160.210938 21.746094 C 160.566406 21.460938 160.84375 21.105469 161.070313 20.710938 C 161.269531 20.375 161.429688 19.980469 161.726563 19.71875 C 162.421875 19.097656 163.613281 19.53125 164.433594 19.558594 C 165.320313 19.585938 166.222656 19.457031 167.101563 19.363281 C 167.980469 19.269531 168.835938 19.074219 169.671875 18.796875 C 170.105469 18.648438 170.535156 18.46875 170.941406 18.265625 C 171.828125 17.816406 172.65625 17.203125 173.269531 16.414063 C 173.503906 16.109375 173.722656 15.773438 173.902344 15.433594 C 174.542969 14.242188 174.960938 12.691406 174.460938 11.375 C 174.289063 10.925781 173.976563 10.542969 173.535156 10.339844 C 173.308594 10.234375 173.066406 10.179688 172.820313 10.144531 C 172.355469 10.078125 172 10.066406 171.546875 10.199219 C 171.105469 10.328125 170.6875 10.523438 170.304688 10.777344 C 169.429688 11.351563 168.796875 12.210938 168.136719 13.003906 C 167.804688 13.40625 167.472656 13.792969 167.089844 14.144531 C 166.65625 14.539063 166.109375 15.042969 165.507813 15.132813 C 164.691406 15.253906 165.015625 14 165.0625 13.566406 C 165.105469 13.152344 165.070313 12.6875 164.996094 12.277344 C 164.863281 11.492188 164.433594 10.816406 163.933594 10.207031 C 163.59375 9.789063 163.1875 9.394531 162.761719 9.0625 C 162.003906 8.460938 161.117188 8.011719 160.203125 7.695313 C 159.21875 7.351563 158.195313 7.234375 157.164063 7.105469 C 156.347656 7.003906 155.527344 6.886719 154.710938 6.769531 C 154.300781 6.710938 153.886719 6.648438 153.476563 6.585938 C 153.269531 6.550781 153.0625 6.519531 152.859375 6.480469 C 152.777344 6.46875 152.617188 6.472656 152.546875 6.429688 C 152.472656 6.378906 152.398438 6.160156 152.355469 6.078125 C 152.285156 5.960938 152.222656 5.84375 152.152344 5.730469 C 152.019531 5.5 151.878906 5.273438 151.730469 5.050781 C 151.1875 4.253906 150.519531 3.550781 149.707031 3.027344 C 148.949219 2.539063 148.082031 2.222656 147.226563 1.964844 C 145.84375 1.554688 144.402344 1.515625 142.972656 1.5 C 142.378906 1.496094 141.785156 1.488281 141.191406 1.488281 C 139.644531 1.480469 138.089844 1.503906 136.539063 1.515625 C 135.210938 1.523438 133.882813 1.515625 132.554688 1.476563 C 131.195313 1.476563 129.820313 1.375 128.472656 1.253906 C 126.976563 1.113281 125.496094 0.914063 124.03125 0.589844 C 123.46875 0.464844 122.914063 0.316406 122.355469 0.191406 C 122.089844 0.128906 121.765625 0.121094 121.519531 -0.00390625 C 121.457031 0.738281 121.394531 1.488281 121.421875 2.234375 C 121.46875 3.457031 121.804688 4.640625 122.566406 5.609375 C 122.933594 6.074219 123.375 6.46875 123.84375 6.816406 C 124.082031 6.996094 124.324219 7.160156 124.570313 7.324219 C 124.804688 7.472656 125.132813 7.613281 125.320313 7.8125 C 125.214844 7.890625 125.046875 7.960938 124.917969 7.996094 C 124.753906 8.039063 124.59375 8.070313 124.433594 8.113281 C 124.050781 8.21875 123.671875 8.335938 123.296875 8.460938 C 122 8.886719 120.726563 9.390625 119.476563 9.933594 C 119.089844 10.097656 118.710938 10.269531 118.332031 10.449219 C 117.664063 10.769531 117.011719 11.113281 116.371094 11.488281 C 115.769531 11.839844 115.199219 12.25 114.597656 12.605469 C 114.183594 12.847656 113.761719 13.078125 113.339844 13.300781 C 111.859375 14.078125 110.28125 14.703125 108.828125 15.523438 C 108.96875 15.691406 109.121094 15.851563 109.269531 16.011719 C 109.808594 16.597656 110.34375 17.183594 110.878906 17.765625 C 111.207031 18.121094 111.53125 18.476563 111.855469 18.832031 C 112.0625 19.039063 112.28125 19.230469 112.515625 19.40625 C 113.183594 19.910156 113.929688 20.238281 114.714844 20.503906 C 114.949219 20.582031 115.179688 20.664063 115.394531 20.789063 C 115.753906 21 116.058594 21.355469 115.84375 21.78125 C 115.636719 22.195313 115.167969 22.5 114.8125 22.78125 C 113.824219 23.550781 112.890625 24.390625 111.832031 25.0625 C 111.15625 25.492188 110.460938 25.875 109.710938 26.164063 C 109.265625 26.339844 108.796875 26.464844 108.34375 26.617188 C 107.925781 26.761719 107.464844 26.855469 107.59375 27.417969 C 107.6875 27.84375 108.132813 28.191406 108.4375 28.476563 C 108.820313 28.835938 109.226563 29.175781 109.605469 29.542969 C 110.117188 30.042969 110.261719 30.683594 109.800781 31.273438 C 109.363281 31.832031 108.898438 32.367188 108.457031 32.925781 C 107.972656 33.535156 107.492188 34.144531 107.007813 34.753906 C 106.605469 35.261719 106.207031 35.769531 105.804688 36.273438 C 105.78125 36.304688 105.304688 36.867188 105.320313 36.886719 C 105.320313 36.886719 105.097656 37.125 105.039063 37.183594 C 104.984375 37.125 104.761719 36.886719 104.761719 36.886719 C 104.777344 36.867188 104.300781 36.304688 104.277344 36.273438 C 103.875 35.769531 103.472656 35.261719 103.074219 34.753906 C 102.589844 34.144531 102.109375 33.535156 101.625 32.925781 C 101.183594 32.367188 100.71875 31.832031 100.28125 31.273438 C 99.820313 30.683594 99.964844 30.042969 100.476563 29.542969 C 100.855469 29.175781 101.261719 28.835938 101.644531 28.476563 C 101.949219 28.191406 102.394531 27.84375 102.488281 27.417969 C 102.613281 26.855469 102.15625 26.761719 101.738281 26.617188 C 101.285156 26.464844 100.816406 26.339844 100.367188 26.164063 C 99.621094 25.875 98.925781 25.492188 98.25 25.0625 C 97.1875 24.390625 96.253906 23.550781 95.269531 22.78125 C 94.914063 22.5 94.445313 22.195313 94.234375 21.78125 C 94.023438 21.355469 94.328125 21 94.6875 20.789063 C 94.898438 20.664063 95.132813 20.582031 95.367188 20.503906 C 96.152344 20.238281 96.902344 19.910156 97.566406 19.40625 C 97.796875 19.230469 98.019531 19.039063 98.222656 18.832031 C 98.550781 18.476563 98.875 18.121094 99.203125 17.765625 C 99.738281 17.183594 100.273438 16.597656 100.8125 16.011719 C 100.960938 15.851563 101.109375 15.691406 101.25 15.523438 C 99.800781 14.703125 98.222656 14.078125 96.742188 13.300781 C 96.316406 13.078125 95.898438 12.847656 95.484375 12.605469 C 94.882813 12.25 94.3125 11.839844 93.710938 11.488281 C 93.070313 11.113281 92.417969 10.769531 91.75 10.449219 C 91.371094 10.269531 90.988281 10.097656 90.605469 9.933594 C 89.355469 9.390625 88.082031 8.886719 86.785156 8.460938 C 86.410156 8.335938 86.03125 8.21875 85.648438 8.113281 C 85.488281 8.070313 85.324219 8.039063 85.164063 7.996094 C 85.035156 7.960938 84.867188 7.890625 84.761719 7.8125 C 84.949219 7.613281 85.277344 7.472656 85.507813 7.324219 C 85.757813 7.160156 86 6.996094 86.234375 6.816406 C 86.707031 6.46875 87.148438 6.074219 87.511719 5.609375 C 88.277344 4.640625 88.613281 3.457031 88.660156 2.234375 C 88.6875 1.488281 88.621094 0.738281 88.558594 -0.00390625 C 88.316406 0.121094 87.992188 0.128906 87.730469 0.191406 C 87.167969 0.316406 86.613281 0.464844 86.050781 0.589844 C 84.585938 0.914063 83.101563 1.113281 81.609375 1.253906 C 80.257813 1.375 78.886719 1.476563 77.53125 1.476563 C 76.199219 1.515625 74.871094 1.523438 73.542969 1.515625 C 71.992188 1.503906 70.441406 1.480469 68.890625 1.488281 C 68.296875 1.488281 67.703125 1.496094 67.109375 1.5 C 65.679688 1.515625 64.234375 1.554688 62.855469 1.964844 C 62 2.222656 61.132813 2.539063 60.378906 3.027344 C 59.5625 3.550781 58.890625 4.253906 58.351563 5.050781 C 58.203125 5.273438 58.0625 5.5 57.925781 5.730469 C 57.859375 5.84375 57.792969 5.960938 57.726563 6.078125 C 57.683594 6.160156 57.609375 6.378906 57.53125 6.429688 C 57.464844 6.472656 57.304688 6.46875 57.222656 6.480469 C 57.015625 6.519531 56.8125 6.550781 56.605469 6.585938 C 56.195313 6.648438 55.78125 6.710938 55.371094 6.769531 C 54.550781 6.886719 53.734375 7.003906 52.917969 7.105469 C 51.886719 7.234375 50.863281 7.351563 49.878906 7.695313 C 48.964844 8.011719 48.078125 8.460938 47.320313 9.0625 C 46.894531 9.394531 46.488281 9.789063 46.148438 10.207031 C 45.652344 10.816406 45.21875 11.492188 45.082031 12.277344 C 45.011719 12.6875 44.972656 13.152344 45.019531 13.566406 C 45.066406 14 45.390625 15.253906 44.574219 15.132813 C 43.972656 15.042969 43.421875 14.539063 42.992188 14.144531 C 42.609375 13.792969 42.277344 13.40625 41.945313 13.003906 C 41.285156 12.210938 40.652344 11.351563 39.777344 10.777344 C 39.394531 10.523438 38.976563 10.328125 38.535156 10.199219 C 38.082031 10.066406 37.722656 10.078125 37.261719 10.144531 C 37.015625 10.179688 36.773438 10.234375 36.546875 10.339844 C 36.101563 10.542969 35.792969 10.925781 35.621094 11.375 C 35.121094 12.691406 35.539063 14.242188 36.175781 15.433594 C 36.359375 15.773438 36.574219 16.109375 36.8125 16.414063 C 37.425781 17.203125 38.253906 17.816406 39.140625 18.265625 C 39.546875 18.46875 39.976563 18.648438 40.410156 18.796875 C 41.25 19.074219 42.097656 19.269531 42.976563 19.363281 C 43.859375 19.457031 44.761719 19.585938 45.648438 19.558594 C 46.464844 19.53125 47.660156 19.097656 48.355469 19.71875 C 48.652344 19.980469 48.816406 20.375 49.011719 20.710938 C 49.238281 21.105469 49.515625 21.460938 49.871094 21.746094 C 50.3125 22.105469 50.8125 22.394531 51.339844 22.605469 C 53.175781 23.339844 55.1875 23.367188 57.132813 23.464844 C 57.726563 23.496094 58.320313 23.523438 58.914063 23.550781 C 61.324219 23.660156 63.738281 23.605469 66.140625 23.867188 C 66.828125 23.941406 67.515625 24.027344 68.207031 24.09375 C 70.257813 24.289063 72.316406 24.699219 74.324219 25.160156 C 74.890625 25.289063 75.453125 25.441406 76.003906 25.640625 C 77.429688 26.15625 78.8125 26.828125 80.042969 27.714844 C 80.394531 27.964844 80.726563 28.234375 81.046875 28.519531 C 82.101563 29.46875 83.039063 30.582031 83.671875 31.859375 C 84.199219 32.921875 84.585938 34.039063 84.761719 35.214844 C 84.933594 36.367188 84.941406 37.558594 84.785156 38.714844 C 84.589844 40.144531 84.164063 41.515625 83.457031 42.773438 C 83.257813 43.136719 83.039063 43.488281 82.824219 43.835938 C 82.367188 44.570313 81.910156 45.296875 81.363281 45.96875 C 81.015625 46.394531 80.628906 46.792969 80.195313 47.140625 C 79.171875 47.964844 78.078125 48.707031 77.039063 49.523438 C 76.425781 50.007813 75.78125 50.453125 75.160156 50.933594 C 74.347656 51.558594 73.652344 52.316406 72.949219 53.058594 C 72.671875 53.347656 72.398438 53.640625 72.113281 53.925781 C 72.023438 54.019531 71.222656 54.902344 71.144531 54.859375 C 68.460938 53.460938 67.605469 50.386719 66.554688 47.507813 L 65.929688 45.054688 L 65.464844 42.175781 C 65.464844 42.0625 65.464844 42.023438 65.386719 41.984375 C 65.347656 41.945313 65.269531 41.945313 65.269531 41.945313 C 65.464844 41.359375 64.839844 40.738281 64.839844 39.921875 C 64.839844 39.867188 64.769531 39.773438 64.746094 39.722656 C 64.714844 39.65625 64.683594 39.589844 64.652344 39.523438 C 64.589844 39.394531 64.527344 39.265625 64.464844 39.132813 C 64.335938 38.871094 64.207031 38.609375 64.070313 38.351563 C 63.804688 37.835938 63.519531 37.328125 63.207031 36.835938 C 62.890625 36.34375 62.550781 35.867188 62.1875 35.414063 C 61.816406 34.953125 61.421875 34.511719 61.011719 34.09375 C 60.59375 33.667969 60.160156 33.261719 59.710938 32.871094 C 59.257813 32.480469 58.789063 32.105469 58.3125 31.746094 C 57.828125 31.386719 57.335938 31.042969 56.824219 30.71875 C 56.175781 30.304688 55.507813 29.929688 54.824219 29.574219 C 54.625 29.472656 54.425781 29.375 54.222656 29.277344 C 53.433594 28.886719 52.625 28.550781 51.816406 28.207031 C 51.277344 27.980469 50.675781 27.65625 50.078125 27.808594 C 49.90625 27.851563 49.746094 27.910156 49.585938 27.980469 C 49.300781 28.105469 49.035156 28.257813 48.761719 28.402344 C 48.027344 28.796875 47.28125 29.230469 46.449219 29.363281 C 45.699219 29.484375 45.015625 29.222656 44.300781 29.027344 C 43.609375 28.84375 42.9375 28.609375 42.273438 28.339844 C 40.929688 27.796875 39.636719 27.128906 38.34375 26.476563 C 36.101563 25.339844 33.921875 24.113281 31.851563 22.695313 C 31.003906 22.113281 30.226563 21.441406 29.429688 20.792969 C 28.210938 19.804688 26.988281 18.820313 25.765625 17.839844 C 25.0625 17.277344 24.472656 16.6875 23.835938 16.046875 C 23.613281 15.824219 23.378906 15.625 23.148438 15.410156 C 22.699219 14.996094 22.265625 14.5625 21.835938 14.125 C 20.96875 13.238281 20.140625 12.320313 19.300781 11.410156 C 17.625 9.59375 15.917969 7.777344 13.902344 6.332031 C 12.8125 5.546875 11.585938 4.644531 10.199219 4.578125 C 8.5625 4.496094 6.980469 4.550781 5.476563 5.269531 C 3.910156 6.019531 2.238281 7.183594 1.546875 8.835938 C 1.164063 9.75 0.957031 10.984375 1.050781 11.972656 C 1.191406 13.445313 1.652344 14.929688 2.546875 16.121094 C 3.5625 17.472656 4.699219 18.773438 5.894531 19.964844 C 7.03125 21.097656 8.269531 22.125 9.542969 23.097656 C 10.84375 24.089844 12.1875 25.035156 13.566406 25.917969 C 14.957031 26.808594 16.390625 27.636719 17.839844 28.425781 C 19.296875 29.222656 20.773438 29.980469 22.25 30.738281 C 22.417969 30.824219 22.601563 30.953125 22.78125 31.011719 C 24.027344 31.398438 24.84375 32.21875 26.089844 32.410156 C 29.824219 34.433594 34.339844 35.640625 38.460938 37.46875 C 39.867188 38.246094 41.84375 38.839844 41.972656 40.746094 C 42.066406 42.121094 40.785156 42.375 39.683594 42.222656 C 38.71875 42.089844 37.777344 41.769531 36.835938 41.523438 C 35.867188 41.273438 34.914063 40.976563 33.96875 40.65625 C 32.136719 40.03125 30.347656 39.273438 28.617188 38.410156 C 27.707031 37.960938 26.8125 37.476563 25.933594 36.964844 C 24.882813 36.339844 23.832031 35.71875 22.820313 35.136719 C 18.464844 32.488281 14.105469 28.832031 9.554688 26.378906 C 8.609375 25.980469 7.535156 25.878906 6.527344 26.074219 C 4.914063 26.390625 3.410156 27.441406 2.695313 28.945313 C 2.105469 30.191406 1.820313 31.714844 2.058594 33.109375 L 2.085938 33.152344 L 2.089844 33.296875 C 2.140625 33.539063 2.203125 33.78125 2.289063 34.015625 C 2.855469 35.554688 4.03125 36.65625 5.386719 37.523438 C 6.136719 38.003906 6.925781 38.425781 7.707031 38.851563 C 9.332031 39.738281 11.011719 40.515625 12.710938 41.234375 C 13.679688 41.644531 14.664063 42.074219 15.660156 42.410156 C 17.175781 42.925781 18.691406 43.445313 20.238281 43.863281 C 23.324219 44.703125 26.496094 45.296875 29.621094 45.976563 C 30.527344 46.171875 31.433594 46.363281 32.34375 46.546875 C 34.21875 46.917969 36.042969 47.40625 37.878906 47.925781 C 38.871094 48.203125 39.734375 48.5625 40.507813 49.273438 C 40.894531 49.632813 41.257813 50.109375 41.324219 50.652344 C 41.410156 51.398438 40.875 52.015625 40.183594 52.199219 C 39.128906 52.484375 38.011719 52.320313 36.945313 52.199219 C 35.808594 52.070313 34.679688 51.875 33.578125 51.5625 C 32.507813 51.257813 31.378906 51.167969 30.339844 50.769531 C 29.320313 50.382813 28.300781 50.011719 27.257813 49.6875 C 21.5 47.898438 16.519531 45.484375 10.953125 43.265625 C 9.515625 42.644531 8.074219 42.253906 6.402344 42.488281 C 4.960938 42.914063 3.949219 43.539063 3.328125 44.746094 C 2.269531 46.796875 2.691406 49.320313 4.339844 50.914063 C 4.972656 51.523438 5.726563 51.980469 6.476563 52.425781 C 7.238281 52.875 7.964844 53.390625 8.773438 53.753906 C 9.539063 54.09375 10.324219 54.390625 11.097656 54.703125 C 13.789063 55.785156 16.703125 56.148438 19.558594 56.519531 C 21.695313 56.796875 23.800781 57.289063 25.957031 57.402344 C 27.65625 57.488281 29.34375 57.316406 31.035156 57.199219 C 32.925781 57.070313 34.8125 56.925781 36.703125 56.785156 C 37.949219 56.691406 39.421875 56.429688 40.429688 57.378906 C 41.027344 57.9375 41.230469 58.800781 40.695313 59.472656 C 39.765625 60.644531 37.984375 60.992188 36.621094 61.367188 C 34.066406 62.074219 31.398438 62.191406 28.757813 62.019531 C 27.253906 61.917969 25.746094 61.726563 24.261719 61.476563 C 22.945313 61.253906 21.679688 61.015625 20.40625 60.605469 C 19.1875 60.21875 18.007813 59.746094 16.835938 59.246094 C 14.539063 58.265625 12.277344 57.359375 9.847656 56.78125 C 8.675781 56.503906 7.390625 56.257813 6.230469 56.695313 C 5.285156 57.050781 4.253906 57.671875 3.664063 58.503906 C 3.347656 58.953125 3.105469 59.558594 3.039063 60.105469 C 2.710938 62.886719 4.488281 65.089844 6.730469 66.445313 C 7.371094 66.832031 8.039063 67.160156 8.699219 67.511719 C 10.339844 68.386719 12.035156 68.8125 13.828125 69.273438 C 15.796875 69.777344 17.84375 70.019531 19.875 70.09375 C 20.488281 70.117188 21.101563 70.113281 21.714844 70.070313 C 23.023438 69.976563 24.328125 69.78125 25.625 69.59375 C 28.210938 69.21875 30.660156 68.511719 33.160156 67.777344 C 34.304688 67.445313 35.464844 67.148438 36.601563 66.789063 C 37.757813 66.425781 38.867188 65.917969 40.054688 65.667969 C 40.921875 65.488281 42.210938 65.335938 42.964844 65.941406 C 43.246094 66.171875 43.558594 66.765625 43.476563 67.148438 C 43.316406 67.898438 42.667969 68.449219 42.082031 68.886719 C 40.835938 69.816406 39.503906 70.625 38.074219 71.242188 C 35.75 72.242188 33.246094 72.777344 30.730469 72.988281 C 28.191406 73.199219 25.640625 73.207031 23.097656 73.007813 C 20.167969 72.773438 17.171875 72.664063 14.304688 71.976563 C 12.628906 71.574219 10.964844 71.089844 9.257813 70.824219 C 7.226563 70.507813 4.25 70.90625 3.292969 73.039063 C 3.015625 73.65625 2.855469 74.667969 3.011719 75.335938 C 3.203125 76.167969 3.585938 76.933594 4.117188 77.597656 C 5.109375 78.839844 6.371094 79.800781 7.75 80.570313 C 8.503906 80.992188 9.285156 81.371094 10.070313 81.730469 C 12.585938 82.875 15.328125 83.558594 18.089844 83.671875 C 18.886719 83.707031 19.683594 83.691406 20.480469 83.621094 C 23.824219 83.328125 27.140625 82.351563 30.222656 81.046875 C 31.394531 80.546875 32.535156 79.976563 33.664063 79.386719 C 34.898438 78.742188 36.03125 77.90625 37.277344 77.292969 C 38.234375 76.820313 39.253906 76.453125 40.3125 76.273438 C 41.433594 76.082031 43.949219 75.894531 44.394531 77.367188 C 44.820313 78.78125 42.757813 80.164063 41.828125 80.820313 C 40.167969 81.992188 38.363281 82.96875 36.558594 83.902344 C 35.5625 84.414063 34.554688 84.902344 33.53125 85.367188 C 32.472656 85.847656 31.457031 86.4375 30.335938 86.761719 C 29.242188 87.074219 28.101563 87.1875 26.984375 87.386719 C 23.96875 87.925781 20.902344 87.445313 17.933594 86.84375 C 15.503906 86.351563 13.070313 85.761719 10.59375 85.5625 C 9.046875 85.4375 7.214844 85.417969 5.761719 86.023438 C 4.984375 86.347656 4.25 87.027344 3.921875 87.820313 C 3.640625 88.5 3.535156 89.261719 3.617188 89.992188 C 4.054688 93.828125 7.363281 96.289063 10.679688 97.628906 C 11.675781 98.027344 12.707031 98.363281 13.738281 98.648438 C 15.699219 99.1875 17.894531 99.253906 19.921875 99.117188 C 22.324219 98.953125 24.679688 98.316406 26.980469 97.640625 C 28.234375 97.273438 29.515625 96.972656 30.710938 96.441406 C 32.769531 95.535156 34.78125 94.328125 36.558594 92.957031 C 38.3125 91.601563 39.941406 90.109375 41.601563 88.648438 C 42.59375 87.777344 43.578125 86.875 44.660156 86.117188 C 45.433594 85.578125 46.371094 84.941406 47.308594 84.757813 C 47.789063 84.664063 48.40625 84.761719 48.789063 85.101563 C 50.394531 86.550781 47.21875 89.675781 46.328125 90.679688 C 44.355469 92.902344 42.15625 94.902344 39.757813 96.660156 C 36.75 98.863281 33.527344 100.953125 29.9375 102.054688 C 26.410156 103.140625 22.636719 103.324219 18.96875 103.347656 C 15.378906 103.371094 11.605469 102.894531 8.082031 103.769531 C 5.917969 104.308594 3.792969 105.847656 3.648438 108.210938 C 3.5 110.574219 4.960938 112.683594 6.726563 114.105469 C 7.6875 114.878906 8.792969 115.628906 9.902344 116.175781 C 13.136719 117.777344 16.816406 118.441406 20.40625 118.105469 C 22.90625 117.867188 25.40625 117.40625 27.714844 116.386719 C 29.953125 115.40625 32.054688 114.050781 33.980469 112.550781 C 35.042969 111.726563 36.0625 110.835938 37.046875 109.917969 C 39.769531 107.375 42.414063 104.902344 44.808594 102.039063 C 45.484375 101.234375 46.148438 100.421875 46.816406 99.613281 C 47.898438 98.304688 48.957031 96.964844 50.144531 95.75 C 51.390625 94.472656 53.761719 92.042969 55.8125 92.859375 C 56.355469 93.078125 56.796875 93.679688 57.007813 94.210938 C 57.644531 95.84375 56.945313 97.488281 55.898438 98.734375 C 54.75 100.109375 53.429688 101.367188 52.070313 102.527344 C 51.253906 103.21875 50.417969 103.898438 49.5625 104.539063 C 47.507813 106.070313 45.253906 107.40625 43.414063 109.203125 C 42.292969 110.292969 41.265625 111.699219 41.40625 113.34375 C 41.558594 115.109375 43.152344 116.503906 44.726563 117.085938 C 46.273438 117.65625 47.988281 117.660156 49.59375 117.359375 C 50.824219 117.128906 52.042969 116.820313 53.167969 116.261719 C 55.113281 115.289063 57.046875 113.84375 58.25 112.015625 C 59.371094 110.3125 60.027344 108.320313 60.71875 106.414063 C 61.113281 105.324219 61.460938 104.210938 61.898438 103.140625 C 62.613281 101.390625 63.59375 99.5 65.226563 98.441406 C 66.179688 97.824219 67.527344 97.535156 68.347656 98.519531 C 70.125 100.648438 68.007813 104.054688 66.539063 105.675781 C 65.292969 107.046875 63.847656 108.226563 62.65625 109.652344 C 61.671875 110.828125 60.59375 112.457031 61.03125 114.070313 C 61.6875 116.503906 64.953125 116.429688 66.722656 115.417969 C 67.910156 114.738281 69.046875 113.753906 69.855469 112.648438 C 71.027344 111.042969 71.496094 109.105469 72.035156 107.226563 C 72.621094 105.175781 72.875 102.183594 74.78125 100.839844 C 75.894531 100.058594 77.140625 100.75 77.863281 101.714844 C 80.117188 104.714844 78.1875 108.378906 76.34375 111 C 75.734375 111.863281 75.105469 112.714844 74.496094 113.578125 C 73.691406 114.707031 72.992188 115.867188 72.070313 116.914063 C 71.089844 118.027344 70.058594 119.085938 68.984375 120.101563 C 68.210938 120.828125 67.417969 121.546875 66.59375 122.210938 C 66.203125 122.519531 65.816406 122.792969 65.386719 123.066406 C 61.535156 125.515625 56.4375 126.644531 51.339844 126.566406 C 48.929688 126.527344 46.476563 126.257813 44.179688 125.710938 C 42.9375 125.710938 42.121094 126.566406 41.535156 127.382813 C 41.769531 131.507813 45.503906 133.878906 47.566406 137.148438 C 47.34375 136.800781 42.351563 138.707031 41.796875 138.886719 C 39.761719 139.546875 37.578125 139.660156 35.453125 139.738281 C 32.257813 139.851563 28.980469 139.445313 26.914063 136.722656 C 25.230469 134.507813 24.390625 131.785156 22.960938 129.417969 C 22.160156 128.089844 21.011719 126.765625 19.710938 125.90625 C 17.648438 124.894531 14.960938 124.738281 12.902344 125.984375 C 12.222656 126.390625 11.140625 126.105469 10.3125 126.132813 C 9.183594 126.164063 8.078125 126.382813 7.261719 127.230469 C 6.617188 127.902344 5.621094 129.058594 5.84375 130.070313 C 5.820313 129.960938 9.707031 129.214844 10.136719 130.738281 C 10.652344 132.554688 10.277344 134.261719 12.429688 135.15625 C 13.710938 135.683594 18.378906 135.488281 17.167969 138.222656 C 16.726563 139.21875 15.132813 139.175781 14.179688 139.207031 C 12.609375 139.261719 11.363281 138.410156 9.890625 138.292969 C 9.164063 138.238281 8.320313 138.265625 7.601563 138.382813 C 5.21875 138.773438 2.847656 140.214844 2.175781 142.65625 C 1.964844 143.421875 1.894531 144.222656 1.851563 145.011719 C 1.710938 147.367188 -0.671875 148.71875 0.1875 151.324219 C 0.425781 152.054688 0.621094 152.214844 1.179688 152.625 C 1.460938 152.832031 1.769531 153.046875 2.089844 153.164063 C 2.277344 152.414063 2.140625 151.65625 2.566406 150.949219 C 2.785156 150.585938 3.101563 150.214844 3.414063 149.933594 C 3.859375 149.527344 4.441406 149.277344 4.898438 148.878906 C 6.453125 150.546875 8.652344 151.003906 10.828125 150.558594 C 13.058594 150.097656 14.621094 148.742188 16.410156 147.445313 C 17.253906 146.835938 18.875 145.902344 19.96875 146.445313 C 20.726563 146.816406 20.960938 147.738281 20.652344 148.484375 C 20.066406 149.933594 17.839844 151.011719 16.539063 151.667969 C 14.503906 152.703125 12.53125 153.769531 11.304688 155.789063 C 10.257813 157.507813 10.503906 159.589844 11.222656 161.378906 C 11.542969 162.1875 12.292969 163.035156 12.496094 163.847656 C 12.734375 164.800781 12.171875 165.753906 12.566406 166.703125 C 13.105469 168 14.273438 169.054688 15.660156 169.351563 C 16.179688 169.464844 18.007813 169.742188 18.425781 169.328125 C 17.800781 168.703125 16.984375 168.316406 16.558594 167.265625 C 16.410156 166.652344 16.558594 165.628906 17.003906 165.148438 C 17.554688 164.550781 18.160156 164.941406 18.855469 164.976563 C 19.488281 165.015625 20.261719 164.902344 20.867188 164.726563 C 23.421875 163.988281 25.199219 162.265625 26.015625 159.796875 C 26.429688 158.53125 26.488281 157.179688 26.609375 155.863281 C 26.765625 154.121094 26.683594 152.148438 28.3125 151.042969 C 28.804688 150.707031 29.375 150.429688 29.980469 150.421875 C 32.136719 150.386719 32.273438 152.921875 32.640625 154.429688 C 32.90625 155.523438 33.226563 156.617188 33.730469 157.625 C 34.621094 159.417969 36.105469 160.640625 38.027344 161.195313 C 38.546875 161.34375 39.085938 161.457031 39.621094 161.527344 C 40.960938 161.707031 42.457031 161.914063 43.796875 161.675781 C 44.238281 161.601563 44.476563 161.707031 44.71875 162.097656 C 45.40625 163.207031 45.371094 164.609375 45.164063 165.851563 C 45.105469 166.207031 45.027344 166.554688 44.921875 166.894531 C 44.828125 167.210938 44.757813 167.53125 44.613281 167.824219 C 45.332031 167.625 46.003906 167.359375 46.597656 166.894531 C 47.164063 166.453125 47.421875 165.914063 47.839844 165.355469 C 48.496094 164.480469 48.667969 163.453125 48.652344 162.382813 C 48.636719 161.460938 48.269531 160.515625 48.503906 159.601563 C 48.699219 158.832031 49.203125 158.179688 49.558594 157.480469 C 49.769531 157.074219 49.945313 156.652344 50.003906 156.191406 C 50.203125 154.589844 49.25 153.101563 47.964844 152.226563 C 46.433594 151.183594 44.46875 150.929688 42.679688 150.648438 C 42.140625 150.558594 41.601563 150.472656 41.0625 150.363281 C 39.992188 150.144531 38.589844 150.164063 38.117188 148.949219 C 37.117188 146.367188 40.382813 145.234375 42.238281 144.664063 C 44.464844 143.980469 46.8125 143.464844 49.09375 143.011719 C 51.777344 142.484375 54.511719 142.519531 57.121094 143.375 C 58.285156 143.757813 59.285156 144.476563 60.40625 144.894531 C 63.179688 145.925781 69.246094 150.488281 71.664063 146.371094 C 72.492188 144.960938 72.632813 143.101563 72.957031 141.535156 C 73.335938 139.722656 73.691406 137.90625 74.265625 136.140625 C 75.027344 133.789063 76.402344 131.730469 77.894531 129.78125 C 79.304688 127.945313 81.035156 126.09375 83.257813 125.261719 C 85.492188 124.421875 87.578125 125.417969 88.238281 127.722656 C 89.121094 130.789063 87.972656 134.34375 87.089844 137.273438 C 86.078125 140.625 84.945313 143.960938 83.75 147.257813 C 82.921875 149.542969 81.96875 151.851563 80.507813 153.816406 C 78.289063 156.816406 74.097656 159.078125 70.402344 159.410156 C 67.71875 159.65625 64.953125 158.964844 62.285156 158.722656 C 60.859375 158.59375 59.109375 158.441406 57.832031 159.230469 C 56.167969 160.257813 56.507813 162.523438 57.445313 163.851563 C 58.511719 165.355469 60.171875 166.308594 61.894531 166.875 C 66.035156 168.230469 70.460938 167.796875 74.308594 165.78125 C 75.347656 165.238281 76.34375 164.589844 77.277344 163.886719 C 78.890625 162.667969 80.378906 161.292969 81.832031 159.890625 C 82.636719 159.113281 85.179688 156.023438 86.546875 156.757813 C 87.1875 157.105469 87.296875 158.210938 87.246094 158.832031 C 87.121094 160.417969 85.863281 161.921875 84.921875 163.128906 C 82.222656 166.582031 78.644531 169.191406 74.34375 170.1875 C 73.136719 170.472656 71.90625 170.605469 70.671875 170.65625 C 69.167969 170.710938 67.675781 170.796875 66.203125 171.117188 C 64.503906 171.480469 63.449219 171.996094 63.003906 173.757813 C 62.851563 174.363281 62.867188 174.976563 63.085938 175.5625 C 63.617188 177.003906 65.078125 177.984375 66.457031 178.519531 C 67.917969 179.085938 70.027344 179.132813 71.578125 179.09375 C 73.226563 179.050781 74.84375 178.675781 76.351563 178.019531 C 79.222656 176.765625 81.632813 174.621094 83.507813 172.144531 C 84.582031 170.722656 85.539063 169.191406 86.417969 167.648438 C 87.273438 166.152344 87.945313 164.589844 89.015625 163.222656 C 89.519531 162.578125 90.105469 161.886719 90.921875 161.636719 C 91.722656 161.394531 92.855469 161.84375 92.953125 162.816406 C 93.054688 163.871094 92.78125 165.132813 92.449219 166.121094 C 91.382813 169.316406 89.101563 172.414063 86.542969 174.582031 C 84.148438 176.609375 80.757813 177.796875 79.058594 180.550781 C 78.058594 182.171875 78.15625 184.125 79.609375 185.445313 C 82.726563 188.28125 87.71875 186.503906 90.085938 183.550781 C 91.652344 181.597656 92.226563 179.347656 92.792969 176.964844 C 93.289063 174.875 93.820313 172.773438 94.472656 170.726563 C 94.828125 169.609375 95.226563 168.128906 96.144531 167.316406 C 97.925781 165.730469 99.234375 169.703125 99.421875 170.8125 C 99.929688 173.847656 99.15625 177.171875 97.703125 179.855469 C 96.902344 181.332031 95.953125 182.71875 94.9375 184.058594 C 94.28125 184.921875 93.609375 185.777344 92.957031 186.644531 C 92.652344 187.054688 92.351563 187.464844 92.054688 187.878906 C 91.6875 188.390625 91.035156 188.8125 91.269531 189.511719 C 91.679688 190.734375 92.851563 191.871094 93.75 192.75 C 97.289063 196.210938 101.414063 199.050781 104.761719 202.320313 L 105.039063 202.042969 L 105.320313 202.320313 C 108.667969 199.050781 112.792969 196.210938 116.332031 192.75 C 117.230469 191.871094 118.402344 190.734375 118.8125 189.511719 C 119.046875 188.8125 118.394531 188.390625 118.027344 187.878906 C 117.730469 187.464844 117.429688 187.054688 117.121094 186.644531 C 116.472656 185.777344 115.796875 184.921875 115.144531 184.058594 C 114.128906 182.71875 113.179688 181.332031 112.378906 179.855469 C 110.925781 177.171875 110.148438 173.847656 110.660156 170.8125 C 110.847656 169.703125 112.15625 165.730469 113.9375 167.316406 C 114.855469 168.128906 115.257813 169.609375 115.609375 170.726563 C 116.261719 172.773438 116.792969 174.875 117.289063 176.964844 C 117.855469 179.347656 118.429688 181.597656 119.996094 183.550781 C 122.359375 186.503906 127.355469 188.28125 130.472656 185.445313 C 131.925781 184.125 132.023438 182.171875 131.019531 180.550781 C 129.324219 177.796875 125.933594 176.609375 123.535156 174.582031 C 120.980469 172.414063 118.695313 169.316406 117.632813 166.121094 C 117.300781 165.132813 117.023438 163.871094 117.128906 162.816406 C 117.226563 161.84375 118.359375 161.394531 119.160156 161.636719 C 119.976563 161.886719 120.5625 162.578125 121.066406 163.222656 C 122.136719 164.589844 122.808594 166.152344 123.660156 167.648438 C 124.542969 169.191406 125.496094 170.722656 126.574219 172.144531 C 128.449219 174.621094 130.859375 176.765625 133.730469 178.019531 C 135.242188 178.675781 136.855469 179.050781 138.503906 179.09375 C 140.058594 179.132813 142.160156 179.085938 143.628906 178.519531 C 145.003906 177.984375 146.464844 177.003906 146.996094 175.5625 C 147.210938 174.976563 147.230469 174.363281 147.078125 173.757813 C 146.632813 171.996094 145.578125 171.480469 143.878906 171.117188 C 142.402344 170.796875 140.914063 170.710938 139.410156 170.65625 C 138.171875 170.605469 136.945313 170.472656 135.738281 170.1875 C 131.4375 169.191406 127.855469 166.582031 125.160156 163.128906 C 124.21875 161.921875 122.960938 160.417969 122.835938 158.832031 C 122.785156 158.210938 122.894531 157.105469 123.535156 156.757813 C 124.902344 156.023438 127.445313 159.113281 128.25 159.890625 C 129.703125 161.292969 131.191406 162.667969 132.804688 163.886719 C 133.738281 164.589844 134.734375 165.238281 135.769531 165.78125 C 139.617188 167.796875 144.042969 168.230469 148.183594 166.875 C 149.910156 166.308594 151.570313 165.355469 152.636719 163.851563 C 153.574219 162.523438 153.914063 160.257813 152.25 159.230469 C 150.972656 158.441406 149.222656 158.59375 147.796875 158.722656 C 145.128906 158.964844 142.363281 159.65625 139.679688 159.410156 C 135.984375 159.078125 131.792969 156.816406 129.570313 153.816406 C 128.113281 151.851563 127.160156 149.542969 126.328125 147.257813 C 125.136719 143.960938 124.003906 140.625 122.992188 137.273438 C 122.109375 134.34375 120.964844 130.789063 121.839844 127.722656 C 122.503906 125.417969 124.589844 124.421875 126.824219 125.261719 C 129.042969 126.09375 130.773438 127.945313 132.1875 129.78125 C 133.679688 131.730469 135.054688 133.789063 135.816406 136.140625 C 136.386719 137.90625 136.746094 139.722656 137.121094 141.535156 C 137.449219 143.101563 137.589844 144.960938 138.414063 146.371094 C 140.835938 150.488281 146.902344 145.925781 149.675781 144.894531 C 150.796875 144.476563 151.796875 143.757813 152.957031 143.375 C 155.566406 142.519531 158.304688 142.484375 160.988281 143.011719 C 163.269531 143.464844 165.617188 143.980469 167.847656 144.664063 C 169.699219 145.234375 172.964844 146.367188 171.964844 148.949219 C 171.492188 150.164063 170.089844 150.144531 169.019531 150.363281 C 168.480469 150.472656 167.941406 150.558594 167.398438 150.648438 C 165.613281 150.929688 163.648438 151.183594 162.113281 152.226563 C 160.832031 153.101563 159.878906 154.589844 160.078125 156.191406 C 160.136719 156.652344 160.3125 157.074219 160.519531 157.480469 C 160.878906 158.179688 161.382813 158.832031 161.578125 159.601563 C 161.8125 160.515625 161.445313 161.460938 161.429688 162.382813 C 161.414063 163.453125 161.585938 164.480469 162.242188 165.355469 C 162.65625 165.914063 162.914063 166.453125 163.480469 166.894531 C 164.074219 167.359375 164.75 167.625 165.46875 167.824219 C 165.324219 167.53125 165.253906 167.210938 165.15625 166.894531 C 165.054688 166.554688 164.976563 166.207031 164.917969 165.851563 C 164.710938 164.609375 164.671875 163.207031 165.363281 162.097656 C 165.605469 161.707031 165.839844 161.601563 166.28125 161.675781 C 167.625 161.914063 169.121094 161.707031 170.460938 161.527344 C 170.996094 161.457031 171.535156 161.34375 172.054688 161.195313 C 173.976563 160.640625 175.460938 159.417969 176.351563 157.625 C 176.855469 156.617188 177.175781 155.523438 177.441406 154.429688 C 177.808594 152.921875 177.945313 150.386719 180.101563 150.421875 C 180.707031 150.429688 181.277344 150.707031 181.769531 151.042969 C 183.394531 152.148438 183.316406 154.121094 183.472656 155.863281 C 183.59375 157.179688 183.648438 158.53125 184.066406 159.796875 C 184.882813 162.265625 186.660156 163.988281 189.210938 164.726563 C 189.816406 164.902344 190.59375 165.015625 191.226563 164.976563 C 191.921875 164.941406 192.523438 164.550781 193.078125 165.148438 C 193.523438 165.628906 193.667969 166.652344 193.523438 167.265625 C 193.097656 168.316406 192.277344 168.703125 191.65625 169.328125 C 192.074219 169.742188 193.902344 169.464844 194.421875 169.351563 C 195.808594 169.054688 196.976563 168 197.515625 166.703125 C 197.910156 165.753906 197.347656 164.800781 197.585938 163.847656 C 197.789063 163.035156 198.535156 162.1875 198.859375 161.378906 C 199.574219 159.589844 199.820313 157.507813 198.777344 155.789063 C 197.550781 153.769531 195.578125 152.703125 193.539063 151.667969 C 192.242188 151.011719 190.015625 149.933594 189.425781 148.484375 C 189.121094 147.738281 189.355469 146.816406 190.113281 146.445313 C 191.207031 145.902344 192.828125 146.835938 193.667969 147.445313 C 195.460938 148.742188 197.019531 150.097656 199.253906 150.558594 C 201.429688 151.003906 203.628906 150.546875 205.183594 148.878906 C 205.640625 149.277344 206.222656 149.527344 206.671875 149.933594 C 206.980469 150.214844 207.296875 150.585938 207.515625 150.949219 C 207.9375 151.65625 207.804688 152.414063 207.992188 153.164063 C 208.3125 153.046875 208.621094 152.832031 208.902344 152.625 C 209.460938 152.214844 209.65625 152.054688 209.894531 151.324219 C 210.753906 148.71875 208.371094 147.367188 208.230469 145.011719 Z M 156.972656 14.324219 C 157.605469 14.15625 158.210938 13.945313 158.824219 13.714844 C 159.414063 13.488281 160.058594 13.277344 160.691406 13.433594 C 161.347656 13.59375 161.800781 14.113281 161.746094 14.804688 C 161.746094 14.847656 161.6875 15.367188 161.695313 15.371094 C 161.574219 15.355469 161.453125 15.339844 161.332031 15.328125 C 160.46875 15.226563 159.605469 15.121094 158.738281 15.019531 C 158.628906 15.007813 158.519531 14.996094 158.410156 14.980469 C 157.949219 14.929688 157.492188 14.875 157.035156 14.820313 C 156.808594 14.792969 156.582031 14.769531 156.355469 14.742188 C 156.199219 14.722656 155.945313 14.640625 155.792969 14.675781 C 156.1875 14.585938 156.574219 14.425781 156.972656 14.324219 Z M 154.496094 18.945313 C 154.8125 18.875 155.128906 18.984375 155.429688 19.0625 C 156.367188 19.316406 157.351563 19.144531 158.300781 19.316406 C 158.589844 19.371094 158.566406 19.574219 158.40625 19.75 C 157.738281 20.46875 156.671875 20.574219 155.765625 20.316406 C 155.402344 20.210938 155.019531 20.09375 154.714844 19.863281 C 154.648438 19.816406 154.546875 19.722656 154.457031 19.613281 C 154.253906 19.363281 154.097656 19.027344 154.496094 18.945313 Z M 142.203125 8.425781 C 142.726563 8.128906 143.269531 7.855469 143.8125 7.597656 C 144.910156 7.066406 146.304688 6.519531 147.519531 7 C 148.605469 7.433594 149.199219 8.859375 147.835938 9.308594 C 146.902344 9.613281 145.78125 9.722656 144.695313 9.765625 C 144.015625 9.789063 143.34375 9.773438 142.671875 9.683594 C 142.160156 9.617188 141.648438 9.410156 141.144531 9.304688 C 141.269531 8.875 141.835938 8.636719 142.203125 8.425781 Z M 48.75 15.328125 C 48.628906 15.339844 48.507813 15.355469 48.382813 15.371094 C 48.394531 15.367188 48.335938 14.847656 48.332031 14.804688 C 48.28125 14.113281 48.730469 13.59375 49.390625 13.433594 C 50.023438 13.277344 50.667969 13.488281 51.257813 13.714844 C 51.871094 13.945313 52.476563 14.15625 53.113281 14.324219 C 53.503906 14.425781 53.894531 14.585938 54.289063 14.675781 C 54.136719 14.640625 53.882813 14.722656 53.726563 14.742188 C 53.5 14.769531 53.273438 14.792969 53.042969 14.820313 C 52.585938 14.875 52.128906 14.929688 51.671875 14.980469 C 51.5625 14.996094 51.453125 15.007813 51.34375 15.019531 C 50.476563 15.121094 49.613281 15.226563 48.75 15.328125 Z M 55.621094 19.613281 C 55.53125 19.722656 55.433594 19.816406 55.367188 19.863281 C 55.058594 20.09375 54.679688 20.210938 54.316406 20.316406 C 53.410156 20.574219 52.34375 20.46875 51.675781 19.75 C 51.515625 19.574219 51.488281 19.371094 51.777344 19.316406 C 52.730469 19.144531 53.714844 19.316406 54.652344 19.0625 C 54.953125 18.984375 55.269531 18.875 55.585938 18.945313 C 55.984375 19.027344 55.828125 19.363281 55.621094 19.613281 Z M 67.410156 9.683594 C 66.738281 9.773438 66.066406 9.789063 65.386719 9.765625 C 64.300781 9.722656 63.179688 9.613281 62.246094 9.308594 C 60.882813 8.859375 61.472656 7.433594 62.5625 7 C 63.777344 6.519531 65.167969 7.066406 66.269531 7.597656 C 66.8125 7.855469 67.355469 8.128906 67.878906 8.425781 C 68.242188 8.636719 68.8125 8.875 68.9375 9.304688 C 68.429688 9.410156 67.921875 9.617188 67.410156 9.683594 "/>
</g>
</g>
</svg>
